<?xml version="1.0" standalone="no"?>
<!DOCTYPE svg PUBLIC "-//W3C//DTD SVG 20010904//EN"
 "http://www.w3.org/TR/2001/REC-SVG-20010904/DTD/svg10.dtd">
<svg version="1.0" xmlns="http://www.w3.org/2000/svg"
 width="500.000000pt" height="500.000000pt" viewBox="0 0 500.000000 500.000000"
 preserveAspectRatio="xMidYMid meet">
<metadata>
Created by potrace 1.11, written by Peter Selinger 2001-2013
</metadata>
<g transform="translate(0.000000,500.000000) scale(0.100000,-0.100000)"
fill="#000000" stroke="none">
<path d="M1413 4049 c-58 -22 -114 -81 -128 -134 -21 -82 -13 -168 30 -315 10
-33 45 -151 73 -245 48 -159 137 -484 187 -684 48 -194 48 -186 29 -371 -1
-14 -2 -41 -3 -60 -1 -26 -24 -70 -96 -179 -52 -79 -95 -152 -95 -162 0 -10 9
-45 20 -76 10 -32 53 -166 94 -298 41 -132 79 -253 85 -270 5 -16 30 -96 56
-177 l46 -148 707 0 c389 0 712 4 718 8 7 4 16 23 22 42 5 19 58 188 116 375
85 269 108 356 111 415 6 86 14 179 21 230 15 104 27 178 50 300 14 74 28 149
30 165 3 17 12 59 20 95 8 36 26 119 40 185 14 66 41 185 61 265 19 80 36 154
39 166 2 12 22 97 45 190 48 200 55 258 40 322 -18 72 -53 116 -114 146 -129
64 -294 10 -359 -117 -38 -76 -93 -263 -194 -662 l-73 -290 1 95 c0 52 -5 108
-11 125 -53 131 -214 187 -355 122 -32 -15 -60 -26 -60 -25 -21 39 -59 82 -95
106 -131 88 -310 42 -367 -94 -19 -45 -23 -75 -30 -199 -3 -60 -7 -111 -8
-112 -1 -2 -19 59 -40 135 -21 75 -51 182 -67 237 -15 55 -39 141 -53 190 -13
50 -34 124 -46 165 -12 41 -23 82 -25 90 -2 8 -20 68 -40 134 -54 179 -90 241
-172 297 -59 41 -133 47 -210 18z"/>
</g>
</svg>
